<?xml version="1.0" encoding="utf-8"?>
<!-- Generator: Adobe Illustrator 27.5.0, SVG Export Plug-In . SVG Version: 6.00 Build 0)  -->
<svg version="1.1" id="Layer_1" xmlns="http://www.w3.org/2000/svg" xmlns:xlink="http://www.w3.org/1999/xlink" x="0px" y="0px"
	 viewBox="0 0 750 500" style="enable-background:new 0 0 750 500;" xml:space="preserve">
<rect style="fill:#F4F4F4;" width="750" height="500"/>
<rect style="fill:#F9F9F9;" width="750" height="500"/>
<g>
	<defs>
		<rect id="SVGID_1_" width="750" height="500"/>
	</defs>
	<clipPath id="SVGID_00000161595288761780106090000002757909793670921904_">
		<use xlink:href="#SVGID_1_"  style="overflow:visible;"/>
	</clipPath>
	<g style="opacity:0.5;clip-path:url(#SVGID_00000161595288761780106090000002757909793670921904_);">
		<g>
			<path style="fill:#C9C9C9;" d="M345.984,942.372c212.005-361.878,193.017-513.289,117.978-612.375
				C546.813,420.314,577.251,566.246,395,943.4C378.648,943.043,362.31,942.7,345.984,942.372
				C345.984,942.372,345.984,942.372,345.984,942.372z"/>
		</g>
		<g>
			<path style="fill:#C9C9C9;" d="M138.171,833.726c117.06-98.908,199.887-188.108,243.864-266.074
				c45.006-78.263,51.161-145.291,38.657-206.707c17.878,59.152,17.666,125.069-21.685,206.085
				c-38.586,80.72-116.312,176.54-235.803,288.657C155.543,847.628,147.252,840.36,138.171,833.726
				C138.171,833.726,138.171,833.726,138.171,833.726z"/>
		</g>
		<g>
			<path style="fill:#C9C9C9;" d="M-69.723,676.644c134.257-40.14,243.983-84.834,315.573-136.287
				c72.922-51.216,107.709-109.192,122.863-170.43c-9.338,61.562-38.485,121.157-105.237,177.434
				C198.193,603.769,95.306,656.859-27.6,708.397C-40.325,698.198-54.393,687.709-69.723,676.644
				C-69.723,676.644-69.723,676.644-69.723,676.644z"/>
		</g>
		<g>
			<path style="fill:#C9C9C9;" d="M-305.442,373.238c395.586,128.872,544.3,79.716,623.764-18.199
				c-68.215,104.242-213.934,161.114-599.592,74.933C-289.326,411.504-297.413,392.592-305.442,373.238
				C-305.442,373.238-305.442,373.238-305.442,373.238z"/>
		</g>
		<g>
			<path style="fill:#C9C9C9;" d="M-280.911,83.361c144.592,131.698,257.59,206.125,347.323,238.647
				c89.94,32.897,156.616,23.888,213.347-2.633c-106.182,63.753-259.665,55.202-580.347-202.859
				C-293.547,105.468-286.989,94.451-280.911,83.361L-280.911,83.361z"/>
		</g>
		<g>
			<path style="fill:#C9C9C9;" d="M-135.241-76.337C-65.684,38.395,2.799,133.538,68.784,190.622
				c66.084,58.594,129.67,79.129,191.717,79.521c-61.157,5.406-125.131-9.189-194.952-62.331
				C-4.061,156.062-79.517,65.766-158.745-48.058C-150.494-56.135-142.755-65.539-135.241-76.337L-135.241-76.337z"/>
		</g>
		<g>
			<path style="fill:#C9C9C9;" d="M79.291-321.748C78.447-152.461,95.385-27.533,128.146,57.514
				c32.477,85.76,80.777,131.639,136.088,159.314c-57.002-21.975-108.113-62.757-147.251-143.184
				C77.548-5.798,50.085-124.886,33.529-280.71C48.1-293.712,63.308-307.445,79.291-321.748
				C79.291-321.748,79.291-321.748,79.291-321.748z"/>
		</g>
		<g>
			<path style="fill:#C9C9C9;" d="M408.321-442.372C196.316-80.494,215.303,70.917,290.343,170.003
				C207.492,79.686,177.053-66.246,359.305-443.4C375.657-443.043,391.994-442.7,408.321-442.372L408.321-442.372z"/>
		</g>
		<g>
			<path style="fill:#C9C9C9;" d="M616.133-333.726c-117.06,98.908-199.887,188.108-243.864,266.074
				c-45.006,78.263-51.161,145.291-38.657,206.707C315.734,79.903,315.946,13.986,355.297-67.03
				c38.586-80.72,116.312-176.54,235.803-288.658C598.761-347.629,607.052-340.36,616.133-333.726L616.133-333.726z"/>
		</g>
		<g>
			<path style="fill:#C9C9C9;" d="M824.028-176.644C689.771-136.504,580.045-91.81,508.455-40.357
				c-72.922,51.216-107.709,109.192-122.863,170.43C394.93,68.51,424.078,8.916,490.829-47.362
				c65.283-56.407,168.17-109.496,291.076-161.035C794.63-198.198,808.698-187.708,824.028-176.644
				C824.028-176.644,824.028-176.644,824.028-176.644z"/>
		</g>
		<g>
			<path style="fill:#C9C9C9;" d="M1059.747,126.762C664.161-2.11,515.448,47.046,435.983,144.961
				C504.198,40.72,649.917-16.152,1035.575,70.029C1043.63,88.497,1051.718,107.409,1059.747,126.762
				C1059.747,126.762,1059.747,126.762,1059.747,126.762z"/>
		</g>
		<g>
			<path style="fill:#C9C9C9;" d="M1035.214,416.639C890.622,284.941,777.624,210.515,687.891,177.993
				c-89.94-32.896-156.616-23.888-213.346,2.633c106.182-63.754,259.665-55.203,580.345,202.857
				C1047.849,394.531,1041.292,405.548,1035.214,416.639L1035.214,416.639z"/>
		</g>
		<g>
			<path style="fill:#C9C9C9;" d="M889.545,576.337c-69.556-114.733-138.04-209.875-204.025-266.958
				c-66.084-58.594-129.67-79.128-191.716-79.52c61.157-5.406,125.131,9.189,194.952,62.331
				c69.609,51.749,145.065,142.045,224.293,255.869C904.797,556.135,897.059,565.538,889.545,576.337
				C889.545,576.337,889.545,576.337,889.545,576.337z"/>
		</g>
		<g>
			<path style="fill:#C9C9C9;" d="M675.013,821.751c0.845-169.288-16.094-294.217-48.854-379.264
				c-32.477-85.761-80.776-131.64-136.088-159.314c57.002,21.976,108.113,62.758,147.251,143.185
				c39.435,79.442,66.897,198.53,83.453,354.354C706.204,793.715,690.996,807.448,675.013,821.751
				C675.013,821.751,675.013,821.751,675.013,821.751z"/>
		</g>
	</g>
	<g style="opacity:0.5;clip-path:url(#SVGID_00000161595288761780106090000002757909793670921904_);">
		<path style="fill:#C9C9C9;" d="M556.069,752.655c29.691-191.793,19.94-310.887-15.19-382.642
			c37.338,68.626,50.992,185.794,31.191,372.456C566.807,745.838,561.475,749.235,556.069,752.655z"/>
		<path style="fill:#C9C9C9;" d="M759.273,548.373c-58.997-123.916-119.652-219.602-182.607-263.577
			c63.472,40.451,126.807,132.666,190.47,252.614C764.522,540.904,761.905,544.559,759.273,548.373z"/>
		<path style="fill:#C9C9C9;" d="M880.918,399.02c-2.259,2.649-4.44,5.335-6.546,8.065
			C748.56,278.088,649.976,213.06,572.528,196.917C649.116,209.918,748.577,270.635,880.918,399.02z"/>
		<path style="fill:#C9C9C9;" d="M926.888,190.967c1.009,5.366,2.011,10.749,3.003,16.15
			c-199.453-87.12-319.749-105.519-399.011-88.615C607.734,98.834,726.997,113.018,926.888,190.967z"/>
		<path style="fill:#C9C9C9;" d="M764.844-60.863c4.219,3.853,8.551,7.775,12.991,11.774C622.906-24.4,513.974,13.068,455.494,64.12
			C510.446,11.688,616.656-29.141,764.844-60.863z"/>
		<path style="fill:#C9C9C9;" d="M590.25-198.157c2.393,2.316,4.908,4.56,7.551,6.742C478.293-103.874,396.608-22.968,366.669,48.32
			C393.296-22.777,471.016-105.534,590.25-198.157z"/>
		<path style="fill:#C9C9C9;" d="M455.842-296.574C328.935-123.968,283.567-10.494,282.467,70.568
			c-1.924-79.507,39.068-192.919,161.129-370.972C447.687-299.1,451.769-297.823,455.842-296.574z"/>
		<path style="fill:#C9C9C9;" d="M198.235-252.656c-29.691,191.794-19.94,310.887,15.19,382.642
			C176.087,61.36,162.434-55.807,182.235-242.47C187.497-245.839,192.83-249.236,198.235-252.656z"/>
		<path style="fill:#C9C9C9;" d="M-4.968-48.375C54.029,75.541,114.683,171.227,177.638,215.203
			C114.167,174.751,50.832,82.536-12.831-37.412C-10.217-40.906-7.6-44.56-4.968-48.375z"/>
		<path style="fill:#C9C9C9;" d="M-126.613,100.981c2.259-2.649,4.44-5.335,6.546-8.065
			C5.745,221.912,104.329,286.94,181.777,303.083C105.189,290.082,5.728,229.365-126.613,100.981z"/>
		<path style="fill:#C9C9C9;" d="M223.424,381.498c-76.854,19.668-196.117,5.483-396.008-72.466
			c-1.009-5.366-2.011-10.749-3.003-16.15C23.866,380.003,144.162,398.402,223.424,381.498z"/>
		<path style="fill:#C9C9C9;" d="M-10.537,560.862c-4.219-3.853-8.551-7.775-12.991-11.774
			c154.929-24.689,263.86-62.157,322.339-113.209C243.86,488.311,137.65,529.14-10.537,560.862z"/>
		<path style="fill:#C9C9C9;" d="M164.057,698.156c-2.393-2.316-4.908-4.56-7.551-6.742
			c119.507-87.541,201.191-168.447,231.13-239.735C361.009,522.775,283.29,605.532,164.057,698.156z"/>
		<path style="fill:#C9C9C9;" d="M310.709,800.404c-4.091-1.304-8.173-2.582-12.246-3.83
			c126.907-172.606,172.275-286.08,173.375-367.142C473.761,508.939,432.769,622.351,310.709,800.404z"/>
	</g>
	<rect style="clip-path:url(#SVGID_00000161595288761780106090000002757909793670921904_);fill:none;" width="750" height="500"/>
</g>
</svg>
